<svg width="22" height="22" viewBox="0 0 22 22" fill="none" xmlns="http://www.w3.org/2000/svg">
<path d="M11 21C12.3135 21.0016 13.6143 20.7437 14.8278 20.2411C16.0412 19.7384 17.1434 19.0009 18.071 18.071C19.0009 17.1434 19.7384 16.0412 20.2411 14.8278C20.7437 13.6143 21.0016 12.3135 21 11C21.0016 9.68655 20.7437 8.38572 20.2411 7.17225C19.7384 5.95878 19.0009 4.85659 18.071 3.92901C17.1434 2.99909 16.0412 2.26162 14.8278 1.75897C13.6143 1.25631 12.3135 0.998388 11 1.00001C9.68655 0.998388 8.38572 1.25631 7.17225 1.75897C5.95878 2.26162 4.85659 2.99909 3.92901 3.92901C2.99909 4.85659 2.26162 5.95878 1.75897 7.17225C1.25631 8.38572 0.998388 9.68655 1.00001 11C0.998388 12.3135 1.25631 13.6143 1.75897 14.8278C2.26162 16.0412 2.99909 17.1434 3.92901 18.071C4.85659 19.0009 5.95878 19.7384 7.17225 20.2411C8.38572 20.7437 9.68655 21.0016 11 21Z" stroke="#0A6AF7" stroke-width="2" stroke-linejoin="round"/>
<path fill-rule="evenodd" clip-rule="evenodd" d="M11 17.5C11.3315 17.5 11.6495 17.3683 11.8839 17.1339C12.1183 16.8995 12.25 16.5815 12.25 16.25C12.25 15.9185 12.1183 15.6005 11.8839 15.3661C11.6495 15.1317 11.3315 15 11 15C10.6685 15 10.3505 15.1317 10.1161 15.3661C9.8817 15.6005 9.75 15.9185 9.75 16.25C9.75 16.5815 9.8817 16.8995 10.1161 17.1339C10.3505 17.3683 10.6685 17.5 11 17.5Z" fill="#0A6AF7"/>
<path d="M11 5V13" stroke="#0A6AF7" stroke-width="2" stroke-linecap="round" stroke-linejoin="round"/>
</svg>
