<svg width="26" height="26" viewBox="0 0 26 26" fill="none" xmlns="http://www.w3.org/2000/svg">
<path d="M12.0808 0L11.2485 1.90039C10.8176 1.92665 10.3889 1.9809 9.9651 2.06281L8.69187 0.418688L7.31954 0.885281L7.3127 2.97708C6.73138 3.27589 6.17427 3.63716 5.64802 4.0588L3.70852 3.18555L2.71556 4.24173L3.70847 6.125C3.39169 6.5766 3.11331 7.05394 2.87623 7.55202L0.746812 7.61009L0.314453 8.99259L2.03372 10.259C1.95141 10.772 1.91122 11.2903 1.90892 11.8091L0 12.7764L0.199938 14.2119L2.29518 14.6221C2.4205 15.0606 2.57581 15.49 2.76002 15.9072L1.37922 17.6214L2.14993 18.8484L4.29641 18.346C4.43224 18.5058 4.573 18.6614 4.71849 18.8124C5.02233 19.1268 5.34602 19.4214 5.68755 19.6943L5.27056 21.8442L6.52498 22.5688L8.16386 21.1418C8.63281 21.3303 9.11562 21.4823 9.60799 21.5964L10.1429 23.6967L11.587 23.8147L12.4551 21.8339C13.0551 21.7978 13.653 21.7081 14.241 21.5638L15.6202 23.1618L16.9652 22.6235L16.9258 21.8134L13.7864 19.4328C12.8725 19.6639 11.9247 19.7257 10.9939 19.6207C9.25734 19.4249 7.58849 18.6407 6.27884 17.2863C3.28535 14.1903 3.37094 9.26532 6.46685 6.27194C7.96638 4.82202 9.89521 4.08647 11.8262 4.06563C13.8819 4.04343 15.9395 4.83104 17.483 6.42742C19.9951 9.02573 20.3375 12.9344 18.5528 15.8936L20.3011 17.2197C20.5186 16.8789 20.7149 16.525 20.889 16.1602L23.003 16.102L23.4353 14.7195L21.7282 13.4617C21.8106 12.9445 21.8523 12.4217 21.8529 11.898L23.7499 10.9341L23.55 9.49856L21.4565 9.08841C21.2804 8.482 21.0469 7.89374 20.7593 7.33157L22.0067 5.60377L21.1727 4.41941L19.1186 5.01583C19.0928 4.98848 19.0678 4.96076 19.0416 4.9338C18.7183 4.59929 18.3723 4.28749 18.006 4.00061L18.3991 1.97034L17.1445 1.24578L15.5859 2.6028C15.0814 2.39974 14.5632 2.2417 14.0376 2.12428L13.5266 0.117906L12.0808 0ZM8.90039 8.39453C8.3347 8.40098 7.77399 8.53989 7.25977 8.79266L9.73273 10.6692C10.4806 11.2366 10.6928 12.315 10.1188 13.072C9.54472 13.8294 8.44233 13.9433 7.68359 13.3678L5.21237 11.493C4.95934 12.8488 5.43851 14.2855 6.61205 15.1758C7.66451 15.9741 9.01523 16.1236 10.1788 15.7056L10.4402 15.6116L10.6606 15.7791L18.0538 21.3881L18.2742 21.5555L18.2553 21.8324C18.1658 23.0656 18.6704 24.3267 19.7234 25.1255C20.897 26.0158 22.411 26.0897 23.6488 25.481L21.1777 23.6063C20.419 23.0307 20.2326 21.938 20.807 21.1812C21.3812 20.4244 22.4769 20.3388 23.2251 20.906L25.6963 22.7809C25.9487 21.4255 25.4715 19.9882 24.2983 19.098C23.2421 18.2964 21.9021 18.1376 20.7454 18.5493L20.4856 18.6417L20.2652 18.4741L12.872 12.8653L12.6516 12.6978L12.6704 12.4227C12.7552 11.1984 12.2411 9.95116 11.1853 9.14993C10.4993 8.62952 9.69659 8.38551 8.90045 8.39459L8.90039 8.39453ZM11.2827 13.3301L20.2447 20.1301L19.6277 20.9453L10.6641 14.1436L11.2827 13.3301Z" fill="#006A7F"/>
</svg>
