<svg width="21" height="20" viewBox="0 0 21 20" fill="none" xmlns="http://www.w3.org/2000/svg">
<path d="M18.375 4.48113H14.9841C14.8851 3.26038 14.3303 2.12161 13.43 1.2913C12.5296 0.460998 11.3497 0 10.125 0C8.90025 0 7.72038 0.460998 6.82004 1.2913C5.91971 2.12161 5.36489 3.26038 5.26594 4.48113H1.875C1.37772 4.48113 0.900805 4.67867 0.549175 5.0303C0.197544 5.38193 0 5.85885 0 6.35613V17.6061C0 18.1034 0.197544 18.5803 0.549175 18.932C0.900805 19.2836 1.37772 19.4811 1.875 19.4811H18.375C18.8723 19.4811 19.3492 19.2836 19.7008 18.932C20.0525 18.5803 20.25 18.1034 20.25 17.6061V6.35613C20.25 5.85885 20.0525 5.38193 19.7008 5.0303C19.3492 4.67867 18.8723 4.48113 18.375 4.48113ZM10.125 2.23113C10.7562 2.23119 11.3662 2.45867 11.8433 2.8719C12.3204 3.28513 12.6326 3.85642 12.7228 4.48113H7.52719C7.61736 3.85642 7.92959 3.28513 8.4067 2.8719C8.8838 2.45867 9.49382 2.23119 10.125 2.23113ZM18 17.2311H2.25V6.73113H5.25V7.85613C5.25 8.1545 5.36853 8.44064 5.5795 8.65162C5.79048 8.8626 6.07663 8.98113 6.375 8.98113C6.67337 8.98113 6.95952 8.8626 7.1705 8.65162C7.38147 8.44064 7.5 8.1545 7.5 7.85613V6.73113H12.75V7.85613C12.75 8.1545 12.8685 8.44064 13.0795 8.65162C13.2905 8.8626 13.5766 8.98113 13.875 8.98113C14.1734 8.98113 14.4595 8.8626 14.6705 8.65162C14.8815 8.44064 15 8.1545 15 7.85613V6.73113H18V17.2311Z" fill="black"/>
</svg>
