<svg width="26" height="26" viewBox="0 0 26 26" fill="none" xmlns="http://www.w3.org/2000/svg">
<path d="M9.16667 1H2.16667C1.85725 1 1.5605 1.12292 1.34171 1.34171C1.12292 1.5605 1 1.85725 1 2.16667V9.16667C1 9.47609 1.12292 9.77283 1.34171 9.99162C1.5605 10.2104 1.85725 10.3333 2.16667 10.3333H9.16667C9.47609 10.3333 9.77283 10.2104 9.99162 9.99162C10.2104 9.77283 10.3333 9.47609 10.3333 9.16667V2.16667C10.3333 1.85725 10.2104 1.5605 9.99162 1.34171C9.77283 1.12292 9.47609 1 9.16667 1ZM9.16667 15H2.16667C1.85725 15 1.5605 15.1229 1.34171 15.3417C1.12292 15.5605 1 15.8572 1 16.1667V23.1667C1 23.4761 1.12292 23.7728 1.34171 23.9916C1.5605 24.2104 1.85725 24.3333 2.16667 24.3333H9.16667C9.47609 24.3333 9.77283 24.2104 9.99162 23.9916C10.2104 23.7728 10.3333 23.4761 10.3333 23.1667V16.1667C10.3333 15.8572 10.2104 15.5605 9.99162 15.3417C9.77283 15.1229 9.47609 15 9.16667 15ZM23.1667 1H16.1667C15.8572 1 15.5605 1.12292 15.3417 1.34171C15.1229 1.5605 15 1.85725 15 2.16667V9.16667C15 9.47609 15.1229 9.77283 15.3417 9.99162C15.5605 10.2104 15.8572 10.3333 16.1667 10.3333H23.1667C23.4761 10.3333 23.7728 10.2104 23.9916 9.99162C24.2104 9.77283 24.3333 9.47609 24.3333 9.16667V2.16667C24.3333 1.85725 24.2104 1.5605 23.9916 1.34171C23.7728 1.12292 23.4761 1 23.1667 1Z" fill="#0A6AF7" stroke="#0A6AF7" stroke-width="2" stroke-linejoin="round"/>
<path d="M15 15H24.3333M19.6667 19.6667H24.3333M15 24.3333H24.3333" stroke="#0A6AF7" stroke-width="2" stroke-linecap="round" stroke-linejoin="round"/>
</svg>
