<svg width="25" height="25" viewBox="0 0 25 25" fill="none" xmlns="http://www.w3.org/2000/svg">
<path fill-rule="evenodd" clip-rule="evenodd" d="M3.05518 5.0924C3.05518 4.28208 3.37707 3.50496 3.95005 2.93198C4.52303 2.359 5.30015 2.03711 6.11046 2.03711H18.3316C19.1419 2.03711 19.919 2.359 20.492 2.93198C21.065 3.50496 21.3869 4.28208 21.3869 5.0924V19.3504C21.3869 20.1607 21.065 20.9378 20.492 21.5108C19.919 22.0838 19.1419 22.4057 18.3316 22.4057H6.11046C5.30015 22.4057 4.52303 22.0838 3.95005 21.5108C3.37707 20.9378 3.05518 20.1607 3.05518 19.3504V5.0924ZM8.14732 5.0924V12.2214L10.4826 9.88614C10.6736 9.69521 10.9326 9.58796 11.2026 9.58796C11.4727 9.58796 11.7317 9.69521 11.9226 9.88614L14.2579 12.2214V5.0924C14.2579 4.82229 14.1506 4.56325 13.9596 4.37226C13.7686 4.18127 13.5096 4.07397 13.2395 4.07397H9.16575C8.89564 4.07397 8.6366 4.18127 8.44561 4.37226C8.25462 4.56325 8.14732 4.82229 8.14732 5.0924Z" fill="black"/>
</svg>
