<svg width="25" height="25" viewBox="0 0 25 25" fill="none" xmlns="http://www.w3.org/2000/svg">
<path d="M19.7476 10.9382L11.203 19.4828V22.4057H6.11083C4.98038 22.4057 4.07397 21.4993 4.07397 20.3688V4.07397C4.07397 3.53376 4.28857 3.01568 4.67056 2.63369C5.05254 2.25171 5.57062 2.03711 6.11083 2.03711H7.12926V9.16611L9.67533 7.63847L12.2214 9.16611V2.03711H18.332C18.8722 2.03711 19.3903 2.25171 19.7723 2.63369C20.1542 3.01568 20.3688 3.53376 20.3688 4.07397V10.4901C20.1448 10.6123 19.9309 10.7549 19.7476 10.9382ZM13.2398 20.3281V22.4057H15.3174L21.5604 16.1729L19.4828 14.0851L13.2398 20.3281ZM23.2714 13.7185L21.927 12.3742C21.7233 12.1705 21.3873 12.1705 21.1938 12.3742L20.1957 13.3722L22.2733 15.4498L23.2714 14.4518C23.475 14.2583 23.475 13.9222 23.2714 13.7185Z" fill="black"/>
</svg>
