<svg width="34" height="34" viewBox="0 0 34 34" fill="none" xmlns="http://www.w3.org/2000/svg">
<path d="M25.4999 28.3332H22.6666C22.2652 28.3332 21.929 28.1972 21.658 27.9252C21.3869 27.6532 21.2509 27.3169 21.25 26.9165C21.249 26.5161 21.385 26.1798 21.658 25.9078C21.9309 25.6358 22.2671 25.4998 22.6666 25.4998H25.4999V22.6665C25.4999 22.2651 25.636 21.9289 25.9079 21.6578C26.1799 21.3868 26.5162 21.2508 26.9166 21.2498C27.3171 21.2489 27.6538 21.3849 27.9267 21.6578C28.1996 21.9308 28.3352 22.267 28.3333 22.6665V25.4998H31.1666C31.568 25.4998 31.9047 25.6358 32.1767 25.9078C32.4487 26.1798 32.5842 26.5161 32.5833 26.9165C32.5823 27.3169 32.4463 27.6536 32.1753 27.9266C31.9042 28.1995 31.568 28.3351 31.1666 28.3332H28.3333V31.1665C28.3333 31.5679 28.1973 31.9046 27.9253 32.1766C27.6533 32.4486 27.3171 32.5841 26.9166 32.5832C26.5162 32.5822 26.1799 32.4462 25.9079 32.1752C25.636 31.9041 25.4999 31.5679 25.4999 31.1665V28.3332ZM4.24995 28.3332C3.84856 28.3332 3.51234 28.1972 3.24128 27.9252C2.97023 27.6532 2.83423 27.3169 2.83328 26.9165V19.8332H2.58537C2.13676 19.8332 1.77078 19.6618 1.48745 19.3189C1.20412 18.9761 1.10967 18.5808 1.20412 18.1332L2.62078 11.0498C2.69162 10.7193 2.8569 10.4478 3.11662 10.2353C3.37634 10.0228 3.67148 9.9165 4.00203 9.9165H22.9145C23.2451 9.9165 23.5402 10.0228 23.7999 10.2353C24.0597 10.4478 24.2249 10.7193 24.2958 11.0498L25.7124 18.1332C25.8069 18.5818 25.7125 18.9775 25.4291 19.3203C25.1458 19.6632 24.7798 19.8341 24.3312 19.8332H24.0833V22.6665C24.0833 23.0679 23.9473 23.4046 23.6753 23.6766C23.4033 23.9486 23.0671 24.0841 22.6666 24.0832C22.2662 24.0822 21.93 23.9462 21.658 23.6752C21.386 23.4041 21.25 23.0679 21.25 22.6665V19.8332H15.5833V26.9165C15.5833 27.3179 15.4473 27.6546 15.1753 27.9266C14.9033 28.1986 14.5671 28.3341 14.1666 28.3332H4.24995ZM5.66662 25.4998H12.75V19.8332H5.66662V25.4998ZM4.24995 8.49984C3.84856 8.49984 3.51234 8.36384 3.24128 8.09184C2.97023 7.81984 2.83423 7.48361 2.83328 7.08317C2.83234 6.68273 2.96834 6.3465 3.24128 6.0745C3.51423 5.8025 3.85045 5.6665 4.24995 5.6665H22.6666C23.068 5.6665 23.4047 5.8025 23.6767 6.0745C23.9487 6.3465 24.0842 6.68273 24.0833 7.08317C24.0823 7.48361 23.9463 7.82031 23.6753 8.09325C23.4042 8.3662 23.068 8.50173 22.6666 8.49984H4.24995Z" fill="black"/>
</svg>
