<svg width="37" height="37" viewBox="0 0 37 37" fill="none" xmlns="http://www.w3.org/2000/svg">
<path d="M30.7563 32.375C27.5444 32.375 24.365 31.6812 21.218 30.2937C18.0709 28.9062 15.2121 26.9278 12.6417 24.3583C10.0712 21.7889 8.09272 18.9368 6.70625 15.8021C5.31978 12.6674 4.62603 9.48125 4.625 6.24375V4.625H13.7208L15.1469 12.3719L10.7531 16.8042C11.3184 17.8062 11.9479 18.7569 12.6417 19.6562C13.3354 20.5556 14.0806 21.3906 14.8771 22.1615C15.6222 22.9066 16.4383 23.6199 17.3252 24.3013C18.2122 24.9827 19.1691 25.6184 20.1958 26.2083L24.6667 21.7375L32.375 23.3177V32.375H30.7563Z" fill="black"/>
</svg>
