<svg width="25" height="25" viewBox="0 0 25 25" fill="none" xmlns="http://www.w3.org/2000/svg">
<mask id="mask0_2028_618" style="mask-type:luminance" maskUnits="userSpaceOnUse" x="2" y="4" width="21" height="17">
<path d="M14.258 4.07324H10.1843C6.34381 4.07324 4.42305 4.07324 3.23047 5.26684C2.37092 6.12538 2.13057 7.36175 2.06335 9.41999H22.379C22.3118 7.36175 22.0714 6.12538 21.2119 5.26684C20.0193 4.07324 18.0985 4.07324 14.258 4.07324ZM10.1843 20.3681H14.258C18.0985 20.3681 20.0193 20.3681 21.2119 19.1745C22.4044 17.9809 22.4055 16.0612 22.4055 12.2207C22.4055 11.7712 22.4048 11.3469 22.4034 10.9476H2.03891C2.03688 11.3469 2.0362 11.7712 2.03688 12.2207C2.03688 16.0612 2.03688 17.9819 3.23047 19.1745C4.42407 20.3671 6.34381 20.3681 10.1843 20.3681Z" fill="white"/>
<path fill-rule="evenodd" clip-rule="evenodd" d="M5.34668 16.2941C5.34668 16.0915 5.42715 15.8972 5.5704 15.754C5.71364 15.6107 5.90792 15.5303 6.1105 15.5303H10.1842C10.3868 15.5303 10.5811 15.6107 10.7243 15.754C10.8676 15.8972 10.948 16.0915 10.948 16.2941C10.948 16.4967 10.8676 16.691 10.7243 16.8342C10.5811 16.9774 10.3868 17.0579 10.1842 17.0579H6.1105C5.90792 17.0579 5.71364 16.9774 5.5704 16.8342C5.42715 16.691 5.34668 16.4967 5.34668 16.2941ZM11.9665 16.2941C11.9665 16.0915 12.0469 15.8972 12.1902 15.754C12.3334 15.6107 12.5277 15.5303 12.7303 15.5303H14.2579C14.4605 15.5303 14.6548 15.6107 14.798 15.754C14.9413 15.8972 15.0218 16.0915 15.0218 16.2941C15.0218 16.4967 14.9413 16.691 14.798 16.8342C14.6548 16.9774 14.4605 17.0579 14.2579 17.0579H12.7303C12.5277 17.0579 12.3334 16.9774 12.1902 16.8342C12.0469 16.691 11.9665 16.4967 11.9665 16.2941Z" fill="black"/>
</mask>
<g mask="url(#mask0_2028_618)">
<path d="M0.000488281 0H24.4428V24.4423H0.000488281V0Z" fill="black"/>
</g>
</svg>
