<svg width="23" height="20" viewBox="0 0 23 20" fill="none" xmlns="http://www.w3.org/2000/svg">
<path d="M2.02 0L3.425 2.8125C3.57083 3.10417 3.77917 3.33333 4.05 3.5C4.32083 3.66667 4.6125 3.75 4.925 3.75C5.55 3.75 6.02917 3.48417 6.3625 2.9525C6.69583 2.42083 6.71667 1.87417 6.425 1.3125L5.77 0H8.27L9.67625 2.8125C9.82208 3.10417 10.0304 3.33333 10.3013 3.5C10.5721 3.66667 10.8638 3.75 11.1763 3.75C11.8013 3.75 12.2804 3.48417 12.6137 2.9525C12.9471 2.42083 12.9679 1.87417 12.6762 1.3125L12.02 0H14.52L15.9263 2.8125C16.0721 3.10417 16.2804 3.33333 16.5512 3.5C16.8221 3.66667 17.1138 3.75 17.4263 3.75C18.0513 3.75 18.5304 3.48417 18.8638 2.9525C19.1971 2.42083 19.2179 1.87417 18.9263 1.3125L18.27 0H20.4813C21.0562 0 21.5367 0.192916 21.9225 0.57875C22.3083 0.964583 22.5008 1.445 22.5 2.02V17.9813C22.5 18.5562 22.3075 19.0367 21.9225 19.4225C21.5375 19.8083 21.0571 20.0008 20.4813 20H2.01875C1.44375 20 0.96375 19.8075 0.57875 19.4225C0.19375 19.0375 0.000833333 18.5567 0 17.98V2.02C0 1.44417 0.192917 0.96375 0.57875 0.57875C0.964583 0.19375 1.44458 0.000833333 2.01875 0M8.0675 16.395H14.4325C14.6875 16.395 14.8888 16.3013 15.0363 16.1138C15.1838 15.9263 15.215 15.7183 15.13 15.49C15.04 15.2917 14.9167 15.1142 14.76 14.9575C14.6025 14.8 14.4167 14.6625 14.2025 14.545C13.7917 14.3183 13.3442 14.1533 12.86 14.05C12.3758 13.9467 11.8392 13.8946 11.25 13.8937C10.6608 13.8929 10.1242 13.9446 9.64 14.0487C9.15583 14.1529 8.70875 14.3183 8.29875 14.545C8.08375 14.6617 7.8975 14.7987 7.74 14.9563C7.58333 15.1129 7.46 15.2904 7.37 15.4888C7.26417 15.6804 7.28917 15.8788 7.445 16.0838C7.6 16.2904 7.8075 16.395 8.0675 16.395ZM12.5825 11.3312C12.9442 10.9704 13.125 10.5262 13.125 9.99875C13.125 9.47125 12.9442 9.02708 12.5825 8.66625C12.2208 8.30542 11.7767 8.125 11.25 8.125C10.7233 8.125 10.2792 8.30583 9.9175 8.6675C9.55583 9.02917 9.375 9.47333 9.375 10C9.375 10.5267 9.55583 10.9708 9.9175 11.3325C10.2792 11.6942 10.7233 11.875 11.25 11.875C11.7767 11.875 12.2208 11.6942 12.5825 11.3325" fill="#1C40F8"/>
</svg>
