<svg width="21" height="24" viewBox="0 0 21 24" fill="none" xmlns="http://www.w3.org/2000/svg">
<path d="M7 23.3333C6.35833 23.3333 5.80922 23.1051 5.35267 22.6485C4.89611 22.1919 4.66744 21.6424 4.66667 21V16.3333H2.8C2.02222 16.3333 1.36111 16.0611 0.816667 15.5167C0.272222 14.9722 0 14.3111 0 13.5333C0 12.9694 0.155556 12.4495 0.466667 11.9735C0.777778 11.4975 1.18611 11.1424 1.69167 10.9083L9.33333 7.525V6.76667C8.63333 6.51389 8.06944 6.09117 7.64167 5.4985C7.21389 4.90583 7 4.23967 7 3.5C7 2.52778 7.34028 1.70139 8.02083 1.02083C8.70139 0.340278 9.52778 0 10.5 0C11.2 0 11.8417 0.194444 12.425 0.583333C13.0083 0.972222 13.4361 1.47778 13.7083 2.1L13.825 2.59583C13.825 2.92639 13.713 3.20367 13.489 3.42767C13.265 3.65167 12.9881 3.76328 12.6583 3.7625C12.4056 3.7625 12.187 3.69444 12.0027 3.55833C11.8183 3.42222 11.6772 3.24722 11.5792 3.03333C11.4812 2.81944 11.3353 2.6495 11.1417 2.5235C10.948 2.3975 10.7341 2.33411 10.5 2.33333C10.1694 2.33333 9.89256 2.44533 9.66933 2.66933C9.44611 2.89333 9.33411 3.17022 9.33333 3.5C9.33255 3.82978 9.44456 4.10706 9.66933 4.33183C9.89411 4.55661 10.171 4.66822 10.5 4.66667C10.829 4.66511 11.1063 4.77711 11.3318 5.00267C11.5574 5.22822 11.669 5.50511 11.6667 5.83333V7.525L19.3083 10.9083C19.8139 11.1417 20.2222 11.4967 20.5333 11.9735C20.8444 12.4503 21 12.9702 21 13.5333C21 14.3111 20.7278 14.9722 20.1833 15.5167C19.6389 16.0611 18.9778 16.3333 18.2 16.3333H16.3333V21C16.3333 21.6417 16.1051 22.1912 15.6485 22.6485C15.1919 23.1058 14.6424 23.3341 14 23.3333H7ZM2.8 14H4.9875C5.20139 13.65 5.48333 13.3681 5.83333 13.1542C6.18333 12.9403 6.57222 12.8333 7 12.8333H14C14.4278 12.8333 14.8167 12.9403 15.1667 13.1542C15.5167 13.3681 15.7986 13.65 16.0125 14H18.2C18.3361 14 18.4481 13.9514 18.536 13.8542C18.6239 13.7569 18.6674 13.6306 18.6667 13.475C18.6667 13.3778 18.6426 13.2949 18.5943 13.2265C18.5461 13.1581 18.473 13.1048 18.375 13.0667L10.5 9.56667L2.625 13.0667C2.52778 13.1056 2.45506 13.1592 2.40683 13.2277C2.35861 13.2961 2.33411 13.3786 2.33333 13.475C2.33333 13.6306 2.37728 13.7569 2.46517 13.8542C2.55306 13.9514 2.66467 14 2.8 14Z" fill="#E80000"/>
</svg>
