<svg width="25" height="25" viewBox="0 0 25 25" fill="none" xmlns="http://www.w3.org/2000/svg">
<path d="M12.3016 2.05078C17.9633 2.05078 22.5527 6.6402 22.5527 12.3019C22.5527 17.9636 17.9633 22.553 12.3016 22.553C6.63996 22.553 2.05054 17.9636 2.05054 12.3019C2.05054 6.6402 6.63996 2.05078 12.3016 2.05078ZM12.3016 6.15122C12.0298 6.15122 11.769 6.25922 11.5768 6.45147C11.3845 6.64372 11.2765 6.90446 11.2765 7.17633V12.3019C11.2766 12.5737 11.3846 12.8344 11.5769 13.0266L14.6522 16.102C14.8456 16.2887 15.1045 16.392 15.3733 16.3897C15.6421 16.3874 15.8992 16.2795 16.0892 16.0895C16.2793 15.8994 16.3871 15.6423 16.3894 15.3735C16.3918 15.1047 16.2885 14.8458 16.1017 14.6525L13.3267 11.8775V7.17633C13.3267 6.90446 13.2187 6.64372 13.0265 6.45147C12.8343 6.25922 12.5735 6.15122 12.3016 6.15122Z" fill="black"/>
</svg>
