<svg width="22" height="22" viewBox="0 0 22 22" fill="none" xmlns="http://www.w3.org/2000/svg">
<path d="M19.8 0.518545C20.5333 -0.214788 9.53333 -0.948122 4.4 4.18521C1.46667 7.11854 0 11.5185 0 13.7185C0 16.6519 1.46667 21.0519 4.4 21.0519C14.6667 21.0519 18.3333 12.9852 19.8 10.0519C21.2667 7.11854 22 1.25188 20.5333 1.25188C19.8 1.25188 16.1333 3.45188 14.6667 4.91854C13.2 6.38521 13.2 9.31854 11.7333 10.7852C10.2667 12.2519 8.06667 12.2519 6.6 13.7185L2.93333 17.3852C2.93333 17.3852 3.66667 13.7185 5.13333 12.2519C6.6 10.7852 8.06667 10.7852 9.53333 9.31854C11 7.85188 11.7333 4.91854 13.2 3.45188C14.6667 1.98521 19.0667 1.25188 19.8 0.518545Z" fill="#594202"/>
</svg>
