<svg width="14" height="13" viewBox="0 0 14 13" fill="none" xmlns="http://www.w3.org/2000/svg">
<path d="M12.5446 2.86344C12.3037 3.10427 12.07 3.33802 12.0629 3.57177C12.0417 3.79844 12.2825 4.03219 12.5092 4.25177C12.8492 4.60594 13.1821 4.92469 13.1679 5.27177C13.1537 5.61885 12.7925 5.9801 12.4312 6.33427L9.50583 9.26677L8.5 8.26094L11.5104 5.2576L10.8304 4.5776L9.82458 5.57635L7.16833 2.9201L9.88833 0.207188C10.1646 -0.0690625 10.625 -0.0690625 10.8871 0.207188L12.5446 1.86469C12.8208 2.12677 12.8208 2.58719 12.5446 2.86344ZM0 10.0955L6.77167 3.31677L9.42792 5.97302L2.65625 12.7518H0V10.0955Z" fill="black"/>
</svg>
