<svg width="29" height="29" viewBox="0 0 29 29" fill="none" xmlns="http://www.w3.org/2000/svg">
<path d="M23.1668 20.381C23.1668 22.085 21.9827 23.4144 20.5372 24.2531C19.0625 25.108 17.1025 25.5998 15.0002 25.5998C12.8978 25.5998 10.9378 25.108 9.46316 24.2542C8.0165 23.4132 6.8335 22.0839 6.8335 20.3787V16.1284L15.0002 21.4064L23.1668 16.1284V20.381Z" fill="#1C40F8"/>
<path d="M28.8074 9.94097L26.6665 11.3237V18.6387H24.3332V12.8317L14.9999 18.8637L1.19238 9.93981L3.07422 8.72181C4.03764 10.0521 5.47909 10.9626 7.0996 11.2645C8.7201 11.5664 10.3953 11.2365 11.7778 10.3433C13.1602 9.45005 14.1438 8.062 14.5246 6.46703C14.9053 4.87206 14.654 3.19256 13.8227 1.77689L14.9999 1.01709L28.8074 9.94097Z" fill="#1C40F8"/>
<path d="M9.78713 3.52176L13.3315 5.0112L9.78713 6.49832L8.29146 10.0212L6.79463 6.49832L3.25146 5.01004L6.79346 3.52176L8.29146 0L9.78713 3.52176Z" fill="#1C40F8"/>
</svg>
