<svg width="37" height="37" viewBox="0 0 37 37" fill="none" xmlns="http://www.w3.org/2000/svg">
<path fill-rule="evenodd" clip-rule="evenodd" d="M5.68575 6.16699H3.08341C2.67454 6.16699 2.28241 6.32942 1.99329 6.61854C1.70417 6.90765 1.54175 7.29978 1.54175 7.70866V7.77033L18.5001 20.1515L35.4584 7.77187V7.70866C35.4584 7.29978 35.296 6.90765 35.0069 6.61854C34.7178 6.32942 34.3256 6.16699 33.9167 6.16699H31.3144L18.5001 15.2937L5.68575 6.16699ZM27.3292 6.16699L18.5001 12.457L9.67096 6.16699H27.3292ZM35.4584 10.6347L31.2188 13.7289V30.8337H33.9167C34.3256 30.8337 34.7178 30.6712 35.0069 30.3821C35.296 30.093 35.4584 29.7009 35.4584 29.292V10.6347ZM28.9063 30.8337V15.417L18.5001 23.0143L8.09383 15.4185V30.8337H28.9063ZM5.78133 30.8337V13.7289L1.54175 10.6347V29.292C1.54175 29.7009 1.70417 30.093 1.99329 30.3821C2.28241 30.6712 2.67454 30.8337 3.08341 30.8337H5.78133Z" fill="black"/>
</svg>
