<svg width="28" height="28" viewBox="0 0 28 28" fill="none" xmlns="http://www.w3.org/2000/svg">
<g clip-path="url(#clip0_2001_755)">
<path d="M19.5546 12.2467C20.1295 12.2483 20.699 12.1358 21.2302 11.9158C21.7613 11.6958 22.2435 11.3725 22.6488 10.9649L26.8598 6.75665C27.1928 6.42361 27.2235 5.88165 26.9063 5.5322C26.8266 5.4444 26.73 5.3737 26.6222 5.32438C26.5144 5.27506 26.3978 5.24815 26.2793 5.24529C26.1608 5.24243 26.0429 5.26367 25.9329 5.30772C25.8229 5.35178 25.7229 5.41773 25.6392 5.50158L21.886 9.25204C21.7599 9.37791 21.5891 9.44861 21.411 9.44861C21.2329 9.44861 21.0621 9.37791 20.936 9.25204C20.6741 8.99064 20.6883 8.54876 20.9497 8.28736L24.6865 4.55056C24.7703 4.46679 24.8361 4.36689 24.8801 4.2569C24.9242 4.14692 24.9454 4.02914 24.9425 3.91072C24.9396 3.79229 24.9128 3.67568 24.8635 3.56795C24.8142 3.46022 24.7436 3.36362 24.6559 3.284C24.4975 3.14037 24.2911 3.06134 24.0773 3.06251C23.9573 3.06257 23.8385 3.08626 23.7277 3.13224C23.6169 3.17822 23.5162 3.24558 23.4314 3.33048L19.6979 7.06345C19.5719 7.18932 19.4011 7.26001 19.2229 7.26001C19.0448 7.26001 18.874 7.18932 18.748 7.06345C18.4866 6.80204 18.5003 6.36017 18.7617 6.09876L22.4985 2.36306C22.5822 2.27929 22.6481 2.17939 22.6921 2.0694C22.7361 1.95942 22.7573 1.84164 22.7545 1.72322C22.7516 1.60479 22.7247 1.48818 22.6754 1.38045C22.6262 1.27272 22.5555 1.17612 22.4678 1.0965C22.3095 0.952867 22.103 0.873836 21.8892 0.875013C21.647 0.8753 21.4147 0.971669 21.2434 1.14298L17.0352 5.35118C16.6275 5.75664 16.3043 6.23894 16.0842 6.77016C15.8642 7.30138 15.7517 7.87097 15.7533 8.44595V8.89603C15.7534 9.0111 15.7308 9.12506 15.6868 9.23138C15.6428 9.3377 15.5782 9.4343 15.4968 9.51564L13.5494 11.4636C13.5291 11.4839 13.505 11.5001 13.4784 11.5111C13.4518 11.5221 13.4234 11.5278 13.3946 11.5278C13.3659 11.5278 13.3374 11.5221 13.3109 11.5111C13.2843 11.5001 13.2602 11.4839 13.2399 11.4636L3.76361 1.98681C3.60006 1.82307 3.3783 1.7308 3.14687 1.73018C2.91544 1.72957 2.69319 1.82066 2.52877 1.98353C1.70025 2.80439 1.25783 3.96322 1.25783 5.33423C1.25236 7.59829 2.44236 10.2014 4.36353 12.1199L9.03658 16.7929C9.7008 17.4557 10.6008 17.828 11.5391 17.8281C11.8382 17.8283 12.1361 17.79 12.4256 17.7144C12.4982 17.6953 12.573 17.6856 12.6481 17.6854C12.8678 17.6854 13.0794 17.7685 13.2404 17.9178L13.8633 18.4931C14.024 18.6573 14.1142 18.8776 14.1149 19.1073V19.4102C14.1133 20.099 14.3839 20.7604 14.8679 21.2505L19.7925 26.2582L19.7974 26.2637C20.344 26.8102 21.0853 27.1172 21.8583 27.1171C22.6312 27.1171 23.3725 26.81 23.919 26.2634C24.4655 25.7168 24.7725 24.9755 24.7724 24.2026C24.7724 23.4297 24.4653 22.6884 23.9187 22.1419L16.537 14.7602C16.5166 14.7399 16.5005 14.7157 16.4895 14.6892C16.4785 14.6626 16.4728 14.6342 16.4728 14.6054C16.4728 14.5767 16.4785 14.5482 16.4895 14.5216C16.5005 14.4951 16.5166 14.471 16.537 14.4506L18.4844 12.5032C18.5657 12.4219 18.6622 12.3574 18.7684 12.3134C18.8746 12.2694 18.9885 12.2467 19.1035 12.2467H19.5546Z" fill="#00BD08"/>
<path d="M11.5391 19.5781C10.1382 19.5752 8.79495 19.0201 7.8007 18.0332L7.04273 17.2752C6.96072 17.1934 6.8496 17.1475 6.73375 17.1475C6.6179 17.1475 6.50678 17.1934 6.42477 17.2752L1.77633 21.8996C0.947812 22.7281 0.651952 23.9476 1.06211 25.142C1.08512 25.2093 1.11233 25.275 1.14359 25.3389C1.69539 26.4687 2.76617 27.125 3.93758 27.125C4.34042 27.126 4.73946 27.047 5.11158 26.8927C5.48369 26.7384 5.82149 26.5117 6.10539 26.2259L12.3048 19.997C12.3309 19.9704 12.3508 19.9384 12.3633 19.9033C12.3758 19.8681 12.3804 19.8307 12.377 19.7936V19.7794C12.3745 19.7453 12.3652 19.712 12.3496 19.6816C12.3339 19.6512 12.3123 19.6243 12.286 19.6025C12.2597 19.5806 12.2292 19.5644 12.1964 19.5546C12.1637 19.5449 12.1293 19.5419 12.0953 19.5459C11.9106 19.5663 11.725 19.5771 11.5391 19.5781Z" fill="#00BD08"/>
</g>
<defs>
<clipPath id="clip0_2001_755">
<rect width="28" height="28" fill="white"/>
</clipPath>
</defs>
</svg>
