<svg width="24" height="24" viewBox="0 0 24 24" fill="none" xmlns="http://www.w3.org/2000/svg">
<path d="M11.9998 2.40039C8.0278 2.40039 4.7998 5.62839 4.7998 9.60039C4.7998 12.0244 6.2038 14.0524 7.83581 15.4684C8.3518 15.9124 9.2518 16.6204 10.0558 17.6644C10.9438 18.8284 11.7478 20.0764 11.9998 20.9164C12.2518 20.0764 13.0558 18.8284 13.9438 17.6644C14.7478 16.6204 15.6478 15.9124 16.1638 15.4684C17.7958 14.0524 19.1998 12.0244 19.1998 9.60039C19.1998 5.62839 15.9718 2.40039 11.9998 2.40039ZM11.9998 5.47239C12.5419 5.47239 13.0787 5.57916 13.5795 5.78662C14.0804 5.99407 14.5354 6.29813 14.9187 6.68145C15.3021 7.06477 15.6061 7.51984 15.8136 8.02067C16.021 8.5215 16.1278 9.05829 16.1278 9.60039C16.1278 10.1425 16.021 10.6793 15.8136 11.1801C15.6061 11.6809 15.3021 12.136 14.9187 12.5193C14.5354 12.9026 14.0804 13.2067 13.5795 13.4142C13.0787 13.6216 12.5419 13.7284 11.9998 13.7284C10.905 13.7284 9.85502 13.2935 9.08087 12.5193C8.30672 11.7452 7.8718 10.6952 7.8718 9.60039C7.8718 8.50558 8.30672 7.4556 9.08087 6.68145C9.85502 5.9073 10.905 5.47239 11.9998 5.47239Z" fill="black"/>
</svg>
