<svg width="38" height="38" viewBox="0 0 38 38" fill="none" xmlns="http://www.w3.org/2000/svg">
<path opacity="0.987" fill-rule="evenodd" clip-rule="evenodd" d="M17.1213 2.51977C18.8432 2.32739 19.8621 2.32739 21.7122 2.51977C24.9872 3.0045 28.0231 4.5183 30.381 6.84227C28.7876 8.34834 27.2152 9.8764 25.6642 11.426C22.6939 8.90852 19.3784 8.32744 15.7177 9.68277C13.0324 10.9178 11.1625 12.9191 10.108 15.6868C8.38476 14.4039 6.684 13.0911 5.00647 11.749C4.88988 11.6877 4.75673 11.6652 4.62646 11.6849C7.29121 6.54698 11.4554 3.49114 17.119 2.51739" fill="#F44336"/>
<path opacity="0.997" fill-rule="evenodd" clip-rule="evenodd" d="M4.62174 11.6848C4.75632 11.6642 4.88378 11.6856 5.00411 11.7489C6.68165 13.091 8.38241 14.4038 10.1056 15.6867C9.83445 16.7651 9.66351 17.8662 9.59499 18.9761C9.65357 20.0496 9.82378 21.1033 10.1056 22.1372L4.74999 26.4003C2.41774 21.5268 2.37499 16.6217 4.62174 11.6848Z" fill="#FFC107"/>
<path opacity="0.999" fill-rule="evenodd" clip-rule="evenodd" d="M30.1269 31.5635C28.4593 30.0929 26.7135 28.7133 24.8972 27.431C26.718 26.1453 27.8232 24.3815 28.2127 22.1395H19.2898V15.9431C24.4356 15.9004 29.5791 15.9439 34.7202 16.0738C35.6955 21.37 34.569 26.1453 31.3405 30.3998C30.9567 30.8078 30.55 31.1962 30.1269 31.5635Z" fill="#448AFF"/>
<path opacity="0.993" fill-rule="evenodd" clip-rule="evenodd" d="M10.1056 22.1396C12.0531 26.9799 15.6235 29.2393 20.8169 28.9179C22.2747 28.7491 23.6724 28.2398 24.8971 27.4312C26.7148 28.7168 28.458 30.0943 30.1269 31.5637C27.4827 33.9397 24.1113 35.3496 20.5627 35.5632C19.7565 35.6276 18.9465 35.6276 18.1403 35.5632C12.0951 34.8507 7.63167 31.7964 4.75 26.4004L10.1056 22.1396Z" fill="#43A047"/>
</svg>
