<svg width="15" height="19" viewBox="0 0 15 19" fill="none" xmlns="http://www.w3.org/2000/svg">
<path d="M7.2 0C3.228 0 0 3.228 0 7.2C0 9.624 1.404 11.652 3.036 13.068C3.552 13.512 4.452 14.22 5.256 15.264C6.144 16.428 6.948 17.676 7.2 18.516C7.452 17.676 8.256 16.428 9.144 15.264C9.948 14.22 10.848 13.512 11.364 13.068C12.996 11.652 14.4 9.624 14.4 7.2C14.4 3.228 11.172 0 7.2 0ZM7.2 3.072C7.7421 3.072 8.27889 3.17877 8.77972 3.38623C9.28055 3.59368 9.73562 3.89774 10.1189 4.28106C10.5023 4.66438 10.8063 5.11945 11.0138 5.62028C11.2212 6.12111 11.328 6.6579 11.328 7.2C11.328 7.7421 11.2212 8.27888 11.0138 8.77972C10.8063 9.28055 10.5023 9.73562 10.1189 10.1189C9.73562 10.5023 9.28055 10.8063 8.77972 11.0138C8.27889 11.2212 7.7421 11.328 7.2 11.328C6.10519 11.328 5.05521 10.8931 4.28106 10.1189C3.50691 9.34479 3.072 8.29481 3.072 7.2C3.072 6.10519 3.50691 5.05521 4.28106 4.28106C5.05521 3.50691 6.10519 3.072 7.2 3.072Z" fill="black"/>
</svg>
