<svg width="29" height="29" viewBox="0 0 29 29" fill="none" xmlns="http://www.w3.org/2000/svg">
<path d="M24.8555 17.9557L26.5834 16.2278L24.8555 14.4998L20.5417 18.8136L10.1863 8.45817L14.5001 4.14442L12.7722 2.4165L11.0442 4.14442L9.31633 2.4165L6.7305 5.00234L5.00258 3.27442L3.27466 5.00234L5.00258 6.73025L2.41675 9.31609L4.14466 11.044L2.41675 12.7719L4.14466 14.4998L8.45842 10.1861L18.8138 20.5415L14.5001 24.8553L16.228 26.5832L17.9559 24.8553L19.6838 26.5832L22.2697 23.9973L23.9976 25.7253L25.7255 23.9973L23.9976 22.2694L26.5834 19.6836L24.8555 17.9557Z" fill="#1C40F8"/>
</svg>
