<svg width="29" height="29" viewBox="0 0 29 29" fill="none" xmlns="http://www.w3.org/2000/svg">
<path d="M19.3462 6.06667H16.4231C15.6923 6.06667 15.6923 7.6 16.4231 7.6H19.3462C20.0769 7.6 20.0769 9.13333 19.3462 9.13333H16.4231C15.6923 9.13333 15.6923 10.6667 16.4231 10.6667H19.3462C20.0769 10.6667 20.0769 12.2 19.3462 12.2H16.4231C15.6923 12.2 15.6923 13.7333 16.4231 13.7333H19.3462C20.0769 13.7333 20.0769 15.2667 19.3462 15.2667H16.4231C15.6923 15.2667 15.6923 16.8 16.4231 16.8H19.3462C20.0769 16.8 20.0769 18.3333 19.3462 18.3333H16.4231C15.6923 18.3333 15.6923 19.8667 16.4231 19.8667H19.3462C20.0769 19.8667 20.0769 21.4 19.3462 21.4H16.4231C15.6923 21.4 15.6923 22.9333 16.4231 22.9333H19.3462C20.0769 22.9333 20.0769 24.4667 19.3462 24.4667H16.4231C15.6923 24.4667 15.6923 26 16.4231 26H22.2692C23 26 23 24.4667 23 24.4667V4.53333C23 4.53333 23 3 22.2692 3H16.4231C15.6923 3 15.6923 4.53333 16.4231 4.53333H19.3462C20.0769 4.53333 20.0769 6.06667 19.3462 6.06667ZM11.1615 18.594C12.7692 17.5667 14.2308 19.146 14.2308 20.6333C14.2308 21.5687 13.8654 22.3813 13.0908 22.7493C12.9008 23.7613 13.1346 24.0373 13.3685 24.5127C13.6023 25.0033 13.0177 25.6167 12.5208 25.1413C12.0969 24.7273 11.8777 23.7 11.8923 22.9793C10.8108 22.918 9.84615 21.952 9.84615 20.6333L9.48077 14.5H8.75L8.38462 20.6333C8.38462 21.814 7.49308 22.9333 6.19231 22.9333C4.90615 22.9333 4 21.9367 4 20.6333C4 19.1767 5.46154 17.5667 7.17154 18.594C7.28846 18.7167 8.38462 3 9.11538 3C9.84615 3 11.1615 18.594 11.1615 18.594ZM6.19231 19.4833C5.46154 19.4833 5.09615 19.8667 5.09615 20.6333C5.09615 21.4 5.46154 21.7833 6.19231 21.7833C6.92308 21.7833 7.28846 21.0167 7.28846 20.6333C7.28846 19.8667 6.92308 19.4833 6.19231 19.4833ZM12.0385 19.4833C11.3077 19.4833 10.9423 19.8667 10.9423 20.6333C10.9423 21.0167 11.3077 21.7833 12.0385 21.7833C12.7692 21.7833 13.1346 21.4 13.1346 20.6333C13.1346 19.8667 12.7692 19.4833 12.0385 19.4833Z" fill="#E92026"/>
</svg>
