<svg width="29" height="29" viewBox="0 0 29 29" fill="none" xmlns="http://www.w3.org/2000/svg">
<path fill-rule="evenodd" clip-rule="evenodd" d="M9.70454 5.01704C9.70454 3.74523 10.2098 2.52551 11.1091 1.62621C12.0084 0.726903 13.2281 0.22168 14.4999 0.22168C15.7717 0.22168 16.9914 0.726903 17.8907 1.62621C18.79 2.52551 19.2953 3.74523 19.2953 5.01704C19.2953 6.28884 18.79 7.50856 17.8907 8.40787C16.9914 9.30717 15.7717 9.81239 14.4999 9.81239C13.2281 9.81239 12.0084 9.30717 11.1091 8.40787C10.2098 7.50856 9.70454 6.28884 9.70454 5.01704ZM5.06661 12.8719C6.04276 11.9452 7.33737 11.4286 8.68332 11.4286C10.0293 11.4286 11.3239 11.9452 12.3 12.8719L12.3208 12.8926L14.4999 15.0718L16.6811 12.8926L16.7018 12.8719C17.6778 11.9464 18.9715 11.4306 20.3165 11.4306C21.6614 11.4306 22.9552 11.9464 23.9311 12.8719C24.4153 13.332 24.801 13.8856 25.0648 14.4993C25.3285 15.1129 25.4648 15.7738 25.4654 16.4417C25.466 17.1096 25.3308 17.7707 25.0682 18.3848C24.8055 18.9989 24.4208 19.5533 23.9373 20.0142L15.2208 28.4863C15.0274 28.6742 14.7685 28.7794 14.4989 28.7794C14.2293 28.7794 13.9703 28.6742 13.777 28.4863L5.06247 20.0142C4.57923 19.5534 4.19461 18.9994 3.93194 18.3855C3.66928 17.7717 3.53404 17.1109 3.53442 16.4432C3.53481 15.7755 3.67082 15.1149 3.9342 14.5013C4.19758 13.8878 4.58283 13.3321 5.06661 12.8719Z" fill="#5E1BB5"/>
</svg>
