<svg width="26" height="25" viewBox="0 0 26 25" fill="none" xmlns="http://www.w3.org/2000/svg">
<path fill-rule="evenodd" clip-rule="evenodd" d="M10.7257 0.420605C11.3316 0.143452 11.99 0 12.6562 0C13.3225 0 13.9809 0.143452 14.5868 0.420605C18.9551 2.42085 22.2092 5.28173 23.7763 6.82523C24.6212 7.65717 25.0729 8.76642 25.1364 9.9111C25.2141 11.3213 25.3125 13.6084 25.3125 16.188C25.3125 18.0083 25.2636 19.6823 25.2073 21.0053C25.1663 22.0217 24.7414 22.9848 24.0183 23.7003C23.2952 24.4158 22.3277 24.8305 21.3109 24.8607C19.3545 24.9282 16.4469 24.9951 12.6562 24.9951C8.86556 24.9951 5.958 24.9276 4.00163 24.8607C2.98481 24.8305 2.01729 24.4158 1.29417 23.7003C0.571063 22.9848 0.14617 22.0217 0.105188 21.0053C0.0364121 19.4005 0.00134188 17.7944 0 16.188C0 13.6084 0.0984375 11.3213 0.176062 9.9111C0.239625 8.76642 0.691312 7.65717 1.53619 6.82523C3.10331 5.28173 6.35794 2.42085 10.7257 0.420605ZM8.15625 19.0889C7.85788 19.0889 7.57173 19.2074 7.36075 19.4184C7.14978 19.6293 7.03125 19.9155 7.03125 20.2139C7.03125 20.5122 7.14978 20.7984 7.36075 21.0093C7.57173 21.2203 7.85788 21.3389 8.15625 21.3389H17.1562C17.4546 21.3389 17.7408 21.2203 17.9517 21.0093C18.1627 20.7984 18.2812 20.5122 18.2812 20.2139C18.2812 19.9155 18.1627 19.6293 17.9517 19.4184C17.7408 19.2074 17.4546 19.0889 17.1562 19.0889H8.15625Z" fill="#0A6AF7"/>
</svg>
