<svg width="6" height="24" viewBox="0 0 6 24" fill="none" xmlns="http://www.w3.org/2000/svg">
<path d="M2.58333 0C1.1625 0 0 1.1625 0 2.58333C0 4.00417 1.1625 5.16667 2.58333 5.16667C4.00417 5.16667 5.16667 4.00417 5.16667 2.58333C5.16667 1.1625 4.00417 0 2.58333 0ZM2.58333 18.0833C1.1625 18.0833 0 19.2458 0 20.6667C0 22.0875 1.1625 23.25 2.58333 23.25C4.00417 23.25 5.16667 22.0875 5.16667 20.6667C5.16667 19.2458 4.00417 18.0833 2.58333 18.0833ZM2.58333 9.04167C1.1625 9.04167 0 10.2042 0 11.625C0 13.0458 1.1625 14.2083 2.58333 14.2083C4.00417 14.2083 5.16667 13.0458 5.16667 11.625C5.16667 10.2042 4.00417 9.04167 2.58333 9.04167Z" fill="black"/>
</svg>
