<svg width="11" height="19" viewBox="0 0 11 19" fill="none" xmlns="http://www.w3.org/2000/svg">
<path d="M2.68881 4.73059C2.50494 6.14817 3.64181 7.46389 3.64181 7.46389C3.64181 7.46389 5.07736 6.48142 5.26123 5.06383C5.44509 3.64538 4.30822 2.32967 4.30822 2.32967C4.30822 2.32967 2.87354 3.31387 2.68881 4.73059ZM1.33958 9.4953C1.94039 10.7929 3.60469 11.3022 3.60469 11.3022C3.60469 11.3022 4.29527 9.70767 3.69447 8.41009C3.09366 7.11251 1.42936 6.60228 1.42936 6.60228C1.42936 6.60228 0.738778 8.19771 1.33958 9.4953ZM2.04829 14.058C3.19466 14.9153 4.90212 14.5751 4.90212 14.5751C4.90212 14.5751 4.75019 12.8441 3.60383 11.9869C2.45746 11.1296 0.75 11.4697 0.75 11.4697C0.75 11.4697 0.901928 13.2007 2.04829 14.058ZM5.16368 17.7686C6.46284 18.3712 8.06326 17.6866 8.06326 17.6866C8.06326 17.6866 7.55655 16.0246 6.25739 15.4212C4.95823 14.8186 3.35867 15.5041 3.35867 15.5041C3.35867 15.5041 3.86452 17.166 5.16368 17.7686ZM6.60354 1.58548C5.55904 2.56363 5.59875 4.29979 5.59875 4.29979C5.59875 4.29979 7.33383 4.45173 8.37834 3.47358C9.42284 2.49543 9.38313 0.758415 9.38313 0.758415C9.38313 0.758415 7.64805 0.607333 6.60354 1.58548Z" stroke="black" stroke-width="1.5" stroke-linejoin="round"/>
</svg>
