<svg width="24" height="24" viewBox="0 0 24 24" fill="none" xmlns="http://www.w3.org/2000/svg">
<path d="M11 19H13V22H11V19ZM11 2H13V5H11V2ZM2 11H5V13H2V11ZM19 11H22V13H19V11ZM6.34 16.24L5.28 17.3L4.22 18.36L4.93 19.07L5.64 19.78L6.7 18.72L7.76 17.66L7.05 16.95L6.34 16.24ZM17.66 7.76L18.72 6.7L19.78 5.64L19.07 4.93L18.36 4.22L17.3 5.28L16.24 6.34L16.95 7.05L17.66 7.76ZM6.34 7.76L7.05 7.05L7.76 6.34L6.7 5.28L5.64 4.22L4.93 4.93L4.22 5.64L5.28 6.7L6.34 7.76ZM17.66 16.24L16.95 16.95L16.24 17.66L17.3 18.72L18.36 19.78L19.07 19.07L19.78 18.36L18.72 17.3L17.66 16.24ZM12 7C11.8 7 11.6 7.04 11.41 7.06H11.4C8.93 7.36 7.01 9.45 7.01 12C7.01 14.76 9.25 17 12.01 17C14.77 17 17.01 14.76 17.01 12C17.01 9.24 14.77 7 12.01 7H12ZM12 15C10.35 15 9 13.65 9 12C9 10.69 9.85 9.59 11.02 9.18C11.0544 10.4446 11.5735 11.6475 12.47 12.54C12.93 13 13.46 13.36 14.06 13.61C14.19 13.66 14.32 13.69 14.45 13.73C14.1758 14.1227 13.8108 14.4434 13.3859 14.6645C12.961 14.8856 12.489 15.0008 12.01 15H12Z" fill="#0A6AF7"/>
</svg>
