<svg width="34" height="34" viewBox="0 0 34 34" fill="none" xmlns="http://www.w3.org/2000/svg">
<path d="M27.501 22.0182C29 20.5952 29 18.3035 29 13.7212C28.9994 13.1044 28.8707 12.4939 28.6214 11.9244C28.372 11.355 28.007 10.8378 27.547 10.4026L22.2609 5.3804C21.8027 4.94344 21.2584 4.59659 20.659 4.35972C20.0597 4.12286 19.417 4.00062 18.7679 4C13.9447 4 11.5325 4 10.0322 5.42415C9.54998 5.88226 9.22255 6.43272 9 7.11928C10.2892 7.03786 11.7972 7.03786 13.5188 7.03786H13.6518C15.4769 7.03786 17.219 7.73171 18.5018 8.95171L23.788 13.9739C24.4261 14.5785 24.9324 15.2966 25.2781 16.0873C25.6237 16.8779 25.8019 17.7256 25.8025 18.5817V18.7081C25.8025 20.3437 25.8025 21.7763 25.7168 23C26.4394 22.7886 27.0188 22.4775 27.501 22.0182Z" fill="black"/>
<path fill-rule="evenodd" clip-rule="evenodd" d="M14.5 29C9.55056 29 7.07519 29 5.53825 27.535C4.00131 26.07 4 23.7137 4 19C4 14.2863 4 11.9288 5.53825 10.465C7.0765 9.00125 9.55056 9 14.5 9C15.1662 9.00063 15.8256 9.12638 16.4407 9.37004C17.0558 9.6137 17.6143 9.9705 18.0844 10.42L23.509 15.5863C23.981 16.034 24.3556 16.5659 24.6115 17.1517C24.8673 17.7375 24.9993 18.3656 25 19C25 23.7137 25 26.0712 23.4617 27.535C21.9235 28.9987 19.4494 29 14.5 29ZM10.9471 24.8838C11.3316 25.25 11.9498 25.25 13.1875 25.25H13.8438V19H13.1875C11.9498 19 11.3316 19 10.9471 19.3663C10.5625 19.7325 10.5625 20.3212 10.5625 21.5V22.75C10.5625 23.9288 10.5625 24.5175 10.9471 24.8838ZM18.0529 24.8838C17.6684 25.25 17.0502 25.25 15.8125 25.25H15.1562V22.75H18.4375C18.4375 23.9288 18.4375 24.5175 18.0529 24.8838ZM15.8125 19C17.0502 19 17.6684 19 18.0529 19.3663C18.4375 19.7325 18.4375 20.3212 18.4375 21.5H15.1562V19H15.8125Z" fill="black"/>
</svg>
