<svg width="28" height="28" viewBox="0 0 28 28" fill="currentColor" xmlns="http://www.w3.org/2000/svg">
<path d="M10.5002 2.3335H3.50016C3.19074 2.3335 2.894 2.45641 2.6752 2.6752C2.45641 2.894 2.3335 3.19074 2.3335 3.50016V10.5002C2.3335 10.8096 2.45641 11.1063 2.6752 11.3251C2.894 11.5439 3.19074 11.6668 3.50016 11.6668H10.5002C10.8096 11.6668 11.1063 11.5439 11.3251 11.3251C11.5439 11.1063 11.6668 10.8096 11.6668 10.5002V3.50016C11.6668 3.19074 11.5439 2.894 11.3251 2.6752C11.1063 2.45641 10.8096 2.3335 10.5002 2.3335ZM10.5002 16.3335H3.50016C3.19074 16.3335 2.894 16.4564 2.6752 16.6752C2.45641 16.894 2.3335 17.1907 2.3335 17.5002V24.5002C2.3335 24.8096 2.45641 25.1063 2.6752 25.3251C2.894 25.5439 3.19074 25.6668 3.50016 25.6668H10.5002C10.8096 25.6668 11.1063 25.5439 11.3251 25.3251C11.5439 25.1063 11.6668 24.8096 11.6668 24.5002V17.5002C11.6668 17.1907 11.5439 16.894 11.3251 16.6752C11.1063 16.4564 10.8096 16.3335 10.5002 16.3335ZM24.5002 2.3335H17.5002C17.1907 2.3335 16.894 2.45641 16.6752 2.6752C16.4564 2.894 16.3335 3.19074 16.3335 3.50016V10.5002C16.3335 10.8096 16.4564 11.1063 16.6752 11.3251C16.894 11.5439 17.1907 11.6668 17.5002 11.6668H24.5002C24.8096 11.6668 25.1063 11.5439 25.3251 11.3251C25.5439 11.1063 25.6668 10.8096 25.6668 10.5002V3.50016C25.6668 3.19074 25.5439 2.894 25.3251 2.6752C25.1063 2.45641 24.8096 2.3335 24.5002 2.3335Z" fill="#F7931E" stroke="#F7931E" stroke-width="2" stroke-linejoin="round"/>
<path d="M16.3335 16.3335H25.6668M21.0002 21.0002H25.6668M16.3335 25.6668H25.6668" stroke="#F7931E" stroke-width="2" stroke-linecap="round" stroke-linejoin="round"/>
</svg>
