<svg width="34" height="34" viewBox="0 0 34 34" fill="none" xmlns="http://www.w3.org/2000/svg">
<g clip-path="url(#clip0_41_293)">
<path d="M9.75325 4C8.95208 4 8.18372 4.31827 7.6172 4.88478C7.05069 5.4513 6.73242 6.21966 6.73242 7.02083V25.1458C6.73242 25.947 7.05069 26.7154 7.6172 27.2819C8.18372 27.8484 8.95208 28.1667 9.75325 28.1667H17.3778C16.8596 27.6276 16.421 27.0173 16.0753 26.3542H9.75325C9.43279 26.3542 9.12544 26.2269 8.89883 26.0003C8.67223 25.7736 8.54492 25.4663 8.54492 25.1458H15.569C15.0884 23.6628 15.0601 22.0703 15.4876 20.5711C15.9151 19.0719 16.7791 17.7339 17.9695 16.7273C19.1599 15.7208 20.623 15.0912 22.1724 14.9189C23.7218 14.7465 25.2874 15.0392 26.6699 15.7595V7.02083C26.6699 6.62413 26.5918 6.23131 26.44 5.86481C26.2882 5.49831 26.0656 5.16529 25.7851 4.88478C25.5046 4.60427 25.1716 4.38176 24.8051 4.22995C24.4386 4.07814 24.0458 4 23.6491 4H9.75325ZM11.5658 7.625H21.2324C21.5529 7.625 21.8602 7.75231 22.0868 7.97891C22.3134 8.20552 22.4408 8.51286 22.4408 8.83333V10.0417C22.4408 10.3621 22.3134 10.6695 22.0868 10.8961C21.8602 11.1227 21.5529 11.25 21.2324 11.25H11.5658C11.2453 11.25 10.9379 11.1227 10.7113 10.8961C10.4847 10.6695 10.3574 10.3621 10.3574 10.0417V8.83333C10.3574 8.51286 10.4847 8.20552 10.7113 7.97891C10.9379 7.75231 11.2453 7.625 11.5658 7.625ZM29.6908 22.7292C29.6908 20.9666 28.9906 19.2762 27.7442 18.0299C26.4979 16.7835 24.8075 16.0833 23.0449 16.0833C21.2823 16.0833 19.5919 16.7835 18.3456 18.0299C17.0993 19.2762 16.3991 20.9666 16.3991 22.7292C16.3991 24.4918 17.0993 26.1821 18.3456 27.4285C19.5919 28.6748 21.2823 29.375 23.0449 29.375C24.8075 29.375 26.4979 28.6748 27.7442 27.4285C28.9906 26.1821 29.6908 24.4918 29.6908 22.7292ZM23.6491 23.3333L23.6503 26.3578C23.6503 26.518 23.5866 26.6717 23.4733 26.785C23.36 26.8983 23.2064 26.962 23.0461 26.962C22.8859 26.962 22.7322 26.8983 22.6189 26.785C22.5056 26.6717 22.442 26.518 22.442 26.3578V23.3333H19.4151C19.2549 23.3333 19.1012 23.2697 18.9879 23.1564C18.8746 23.0431 18.8109 22.8894 18.8109 22.7292C18.8109 22.5689 18.8746 22.4153 18.9879 22.302C19.1012 22.1887 19.2549 22.125 19.4151 22.125H22.4408V19.1042C22.4408 18.9439 22.5044 18.7903 22.6177 18.677C22.731 18.5637 22.8847 18.5 23.0449 18.5C23.2052 18.5 23.3588 18.5637 23.4721 18.677C23.5854 18.7903 23.6491 18.9439 23.6491 19.1042V22.125H26.6663C26.8265 22.125 26.9802 22.1887 27.0935 22.302C27.2068 22.4153 27.2705 22.5689 27.2705 22.7292C27.2705 22.8894 27.2068 23.0431 27.0935 23.1564C26.9802 23.2697 26.8265 23.3333 26.6663 23.3333H23.6491Z" fill="black"/>
</g>
<defs>
<clipPath id="clip0_41_293">
<rect width="30" height="30" fill="white" transform="translate(2 2)"/>
</clipPath>
</defs>
</svg>
