<svg width="24" height="24" viewBox="0 0 24 24" fill="none" xmlns="http://www.w3.org/2000/svg">
<g clip-path="url(#clip0_540_1904)">
<path d="M19.524 14.7213H19.532C20.1773 14.7206 20.806 14.6633 21.418 14.5493L21.355 14.5593C20.209 18.6813 16.489 21.6573 12.074 21.6573H12.016H12.019C6.676 21.6513 2.346 17.3213 2.341 11.9783C2.35353 9.87612 3.04445 7.83321 4.31093 6.15537C5.57742 4.47753 7.35179 3.25344 9.37 2.66526L9.439 2.64826C9.32963 3.24838 9.27541 3.85725 9.277 4.46726V4.47426C9.282 10.1323 13.867 14.7173 19.524 14.7223V14.7213ZM12.006 0.47026C11.887 0.309375 11.7284 0.182004 11.5457 0.100524C11.3629 0.0190443 11.1622 -0.0137735 10.963 0.00525994H10.968C4.813 0.59626 0.034 5.72426 0 11.9763V11.9793C0.008 18.6143 5.385 23.9913 12.019 24.0003H12.08C18.323 24.0003 23.447 19.2143 23.985 13.1113L23.988 13.0663C24.0051 12.8763 23.9754 12.6851 23.9017 12.5093C23.828 12.3334 23.7124 12.1782 23.565 12.0573L23.563 12.0553C23.4143 11.9324 23.2373 11.8486 23.048 11.8114C22.8587 11.7742 22.6631 11.7848 22.479 11.8423L22.487 11.8403L21.963 11.9963C21.1773 12.2545 20.3551 12.3845 19.528 12.3813H19.521C17.4256 12.3794 15.4165 11.5462 13.9348 10.0645C12.4531 8.58278 11.6199 6.5737 11.618 4.47826V4.46026C11.618 3.43026 11.816 2.44626 12.176 1.54526L12.157 1.59826C12.2305 1.41179 12.2548 1.20958 12.2276 1.01101C12.2005 0.812445 12.1228 0.624178 12.002 0.46426L12.004 0.46726L12.006 0.47026Z" fill="#0A6AF7"/>
</g>
<defs>
<clipPath id="clip0_540_1904">
<rect width="24" height="24" fill="white"/>
</clipPath>
</defs>
</svg>
