<svg width="21" height="25" viewBox="0 0 21 25" fill="none" xmlns="http://www.w3.org/2000/svg">
<path d="M10.0554 0C7.96685 0 5.96382 0.829685 4.48697 2.30653C3.01012 3.78338 2.18043 5.78642 2.18043 7.875V11.844C2.1806 12.0185 2.14016 12.1907 2.06231 12.3469L0.130683 16.209C0.0363254 16.3977 -0.00822953 16.6074 0.0012502 16.8181C0.0107299 17.0289 0.0739295 17.2337 0.184846 17.4131C0.295763 17.5926 0.450715 17.7407 0.634983 17.8434C0.819252 17.9461 1.02672 18 1.23768 18H18.8732C19.0841 18 19.2916 17.9461 19.4759 17.8434C19.6602 17.7407 19.8151 17.5926 19.926 17.4131C20.0369 17.2337 20.1001 17.0289 20.1096 16.8181C20.1191 16.6074 20.0745 16.3977 19.9802 16.209L18.0497 12.3469C17.9714 12.1908 17.9306 12.0186 17.9304 11.844V7.875C17.9304 5.78642 17.1007 3.78338 15.6239 2.30653C14.147 0.829685 12.144 0 10.0554 0ZM10.0554 21.375C9.3572 21.3754 8.67604 21.1592 8.10583 20.7562C7.53562 20.3532 7.10443 19.7833 6.87168 19.125H13.2392C13.0064 19.7833 12.5752 20.3532 12.005 20.7562C11.4348 21.1592 10.7537 21.3754 10.0554 21.375Z" fill="black"/>
</svg>
