<svg width="23" height="24" viewBox="0 0 23 24" fill="none" xmlns="http://www.w3.org/2000/svg">
<path fill-rule="evenodd" clip-rule="evenodd" d="M14.9878 1.08065C15.3015 -0.354203 17.345 -0.362774 17.6724 1.07037L17.6878 1.13894L17.7187 1.27094C18.0958 2.87894 19.397 4.10808 21.0273 4.39094C22.5238 4.65151 22.5238 6.80123 21.0273 7.0618C20.2264 7.20177 19.4847 7.5749 18.895 8.13446C18.3052 8.69402 17.8937 9.41514 17.7118 10.2075L17.6724 10.3824C17.3467 11.8155 15.3015 11.8069 14.9861 10.3721L14.9535 10.2212C14.7799 9.42559 14.373 8.69976 13.7849 8.13641C13.1968 7.57305 12.4542 7.19774 11.6518 7.05837C10.1587 6.79951 10.1587 4.65323 11.6518 4.39437C12.4513 4.25558 13.1916 3.88252 13.7788 3.32248C14.366 2.76245 14.7736 2.04067 14.9501 1.24865L14.9741 1.13894L14.9878 1.08065ZM11.3295 8.90465C10.9072 8.8337 10.502 8.68427 10.1347 8.46408H5.81983C4.55428 8.4639 3.3331 8.93036 2.38994 9.7742C1.44678 10.618 0.847881 11.78 0.707827 13.0378L0.0221125 19.2229C-0.0743714 20.1197 0.146853 21.0218 0.647233 21.7722C1.14761 22.5225 1.89542 23.0735 2.76034 23.3291C3.62526 23.5847 4.55244 23.5287 5.38031 23.1709C6.20818 22.813 6.88424 22.1761 7.29068 21.3709L7.89754 20.1589H12.9135L13.5187 21.3709C13.9223 22.1806 14.5982 22.8223 15.4278 23.1834C16.2573 23.5445 17.1875 23.6019 18.0552 23.3456C18.9229 23.0894 19.6726 22.5357 20.1728 21.7818C20.673 21.028 20.8918 20.122 20.7907 19.2229L20.105 13.0378C20.0262 12.3276 19.8002 11.6416 19.4415 11.0235C18.5124 14.1812 13.8838 14.0852 13.1587 10.7715L13.1244 10.6207C13.0295 10.1893 12.8085 9.79588 12.4895 9.49036C12.1706 9.18483 11.768 8.98097 11.333 8.90465M7.09183 12.6401C7.09183 12.3559 6.97894 12.0834 6.77801 11.8825C6.57708 11.6815 6.30456 11.5687 6.0204 11.5687C5.73624 11.5687 5.46372 11.6815 5.26278 11.8825C5.06185 12.0834 4.94897 12.3559 4.94897 12.6401V13.5178H4.07126C3.78709 13.5178 3.51457 13.6307 3.31364 13.8316C3.11271 14.0325 2.99983 14.3051 2.99983 14.5892C2.99983 14.8734 3.11271 15.1459 3.31364 15.3468C3.51457 15.5478 3.78709 15.6607 4.07126 15.6607H4.94897V16.5384C4.94897 16.8225 5.06185 17.0951 5.26278 17.296C5.46372 17.4969 5.73624 17.6098 6.0204 17.6098C6.30456 17.6098 6.57708 17.4969 6.77801 17.296C6.97894 17.0951 7.09183 16.8225 7.09183 16.5384V15.6607H7.96954C8.2537 15.6607 8.52622 15.5478 8.72716 15.3468C8.92809 15.1459 9.04097 14.8734 9.04097 14.5892C9.04097 14.3051 8.92809 14.0325 8.72716 13.8316C8.52622 13.6307 8.2537 13.5178 7.96954 13.5178H7.09183V12.6401ZM15.2347 15.6332C15.2428 15.7754 15.2219 15.9177 15.1731 16.0514C15.1243 16.1852 15.0487 16.3075 14.951 16.411C14.8532 16.5145 14.7354 16.597 14.6047 16.6534C14.4739 16.7097 14.333 16.7388 14.1907 16.7388C14.0483 16.7388 13.9075 16.7097 13.7767 16.6534C13.646 16.597 13.5281 16.5145 13.4304 16.411C13.3326 16.3075 13.2571 16.1852 13.2083 16.0514C13.1595 15.9177 13.1385 15.7754 13.1467 15.6332C13.162 15.3667 13.2786 15.1161 13.4727 14.9328C13.6668 14.7495 13.9237 14.6474 14.1907 14.6474C14.4577 14.6474 14.7145 14.7495 14.9086 14.9328C15.1028 15.1161 15.2194 15.3667 15.2347 15.6332Z" fill="#7300FF"/>
</svg>
