<svg width="16" height="16" viewBox="0 0 16 16" fill="none" xmlns="http://www.w3.org/2000/svg">
<g clip-path="url(#clip0_278_1116)">
<path d="M7 18C7 18 6 18 6 17C6 16 7 13 11 13C15 13 16 16 16 17C16 18 15 18 15 18H7ZM11 12C11.7956 12 12.5587 11.6839 13.1213 11.1213C13.6839 10.5587 14 9.79565 14 9C14 8.20435 13.6839 7.44129 13.1213 6.87868C12.5587 6.31607 11.7956 6 11 6C10.2044 6 9.44129 6.31607 8.87868 6.87868C8.31607 7.44129 8 8.20435 8 9C8 9.79565 8.31607 10.5587 8.87868 11.1213C9.44129 11.6839 10.2044 12 11 12ZM5.216 18C5.06782 17.6878 4.9939 17.3455 5 17C5 15.645 5.68 14.25 6.936 13.28C6.30918 13.0864 5.65598 12.992 5 13C1 13 0 16 0 17C0 18 1 18 1 18H5.216ZM4.5 12C5.16304 12 5.79893 11.7366 6.26777 11.2678C6.73661 10.7989 7 10.163 7 9.5C7 8.83696 6.73661 8.20107 6.26777 7.73223C5.79893 7.26339 5.16304 7 4.5 7C3.83696 7 3.20107 7.26339 2.73223 7.73223C2.26339 8.20107 2 8.83696 2 9.5C2 10.163 2.26339 10.7989 2.73223 11.2678C3.20107 11.7366 3.83696 12 4.5 12Z" fill="black"/>
</g>
<defs>
<clipPath id="clip0_278_1116">
<rect width="16" height="16" fill="white"/>
</clipPath>
</defs>
</svg>
