<svg width="24" height="24" viewBox="0 0 24 24" fill="none" xmlns="http://www.w3.org/2000/svg">
<path d="M12.306 14.0162C13.0447 14.092 13.7291 14.439 14.2268 14.9902C14.7244 15.5414 14.9999 16.2576 15 17.0002C15 18.5422 14.06 19.8182 12.796 20.6602C11.526 21.5082 9.826 22.0002 8 22.0002C6.174 22.0002 4.474 21.5082 3.204 20.6602C1.938 19.8202 1 18.5422 1 17.0002C1 16.2046 1.31607 15.4415 1.87868 14.8789C2.44129 14.3163 3.20435 14.0002 4 14.0002H12L12.306 14.0162ZM19.996 14.0002C20.7916 14.0002 21.5547 14.3163 22.1173 14.8789C22.6799 15.4415 22.996 16.2046 22.996 17.0002C22.996 18.3902 22.134 19.4222 21.03 20.0562C19.934 20.6862 18.5 21.0002 16.996 21.0002C16.4907 20.9989 15.9973 20.9622 15.516 20.8902C15.984 20.3382 16.376 19.7042 16.638 18.9902C16.7567 18.9969 16.876 19.0002 16.996 19.0002C18.254 19.0002 19.32 18.7342 20.034 18.3242C20.74 17.9182 20.996 17.4502 20.996 17.0002C20.996 16.735 20.8906 16.4807 20.7031 16.2931C20.5156 16.1056 20.2612 16.0002 19.996 16.0002H16.896C16.7453 15.2745 16.4352 14.5914 15.988 14.0002H19.996ZM4 16.0002C3.73478 16.0002 3.48043 16.1056 3.29289 16.2931C3.10536 16.4807 3 16.735 3 17.0002C3 17.6662 3.406 18.3922 4.312 18.9962C5.212 19.5962 6.512 20.0002 8 20.0002C9.486 20.0002 10.788 19.5962 11.688 18.9962C12.594 18.3922 13 17.6662 13 17.0002C13 16.7697 12.9204 16.5462 12.7747 16.3677C12.6289 16.1891 12.4259 16.0663 12.2 16.0202L12 16.0002H4ZM8.462 3.01823C9.57118 3.13206 10.5988 3.65308 11.3461 4.48057C12.0934 5.30806 12.5074 6.38323 12.508 7.49823L12.484 7.95823C12.3692 9.06669 11.8478 10.0933 11.0204 10.8398C10.193 11.5863 9.11838 11.9997 8.004 12.0002L7.544 11.9762C6.51366 11.8711 5.55112 11.4138 4.81878 10.6815C4.08644 9.94911 3.62912 8.98657 3.524 7.95623L3.5 7.49623C3.5 6.30151 3.97446 5.1557 4.81907 4.31072C5.66368 3.46574 6.80928 2.99076 8.004 2.99023L8.462 3.01823ZM17.5 4.99423C17.9596 4.99423 18.4148 5.08476 18.8394 5.26066C19.264 5.43655 19.6499 5.69436 19.9749 6.01936C20.2999 6.34437 20.5577 6.7302 20.7336 7.15484C20.9095 7.57948 21 8.03461 21 8.49424C21 8.95386 20.9095 9.40899 20.7336 9.83363C20.5577 10.2583 20.2999 10.6441 19.9749 10.9691C19.6499 11.2941 19.264 11.5519 18.8394 11.7278C18.4148 11.9037 17.9596 11.9942 17.5 11.9942C16.5717 11.9942 15.6815 11.6255 15.0251 10.9691C14.3687 10.3127 14 9.42249 14 8.49424C14 7.56598 14.3687 6.67574 15.0251 6.01936C15.6815 5.36298 16.5717 4.99423 17.5 4.99423ZM8.004 4.99423C7.67517 4.99423 7.34956 5.059 7.04576 5.18484C6.74196 5.31068 6.46592 5.49512 6.2334 5.72764C6.00089 5.96016 5.81644 6.2362 5.69061 6.53999C5.56477 6.84379 5.5 7.1694 5.5 7.49823C5.5 7.82706 5.56477 8.15268 5.69061 8.45647C5.81644 8.76027 6.00089 9.03631 6.2334 9.26883C6.46592 9.50135 6.74196 9.68579 7.04576 9.81163C7.34956 9.93747 7.67517 10.0022 8.004 10.0022C8.6681 10.0022 9.305 9.73842 9.7746 9.26883C10.2442 8.79924 10.508 8.16234 10.508 7.49823C10.508 6.83413 10.2442 6.19723 9.7746 5.72764C9.305 5.25805 8.6681 4.99423 8.004 4.99423ZM17.5 6.99423C17.1022 6.99423 16.7206 7.15227 16.4393 7.43357C16.158 7.71488 16 8.09641 16 8.49424C16 8.89206 16.158 9.27359 16.4393 9.55489C16.7206 9.8362 17.1022 9.99424 17.5 9.99424C17.8978 9.99424 18.2794 9.8362 18.5607 9.55489C18.842 9.27359 19 8.89206 19 8.49424C19 8.09641 18.842 7.71488 18.5607 7.43357C18.2794 7.15227 17.8978 6.99423 17.5 6.99423Z" fill="#0A6AF7"/>
</svg>
