<svg width="23" height="23" viewBox="0 0 23 23" fill="none" xmlns="http://www.w3.org/2000/svg">
<path d="M16.1458 14.2083H15.1254L14.7638 13.8596C16.0734 12.3407 16.7932 10.4014 16.7917 8.39584C16.7917 6.7353 16.2993 5.11205 15.3767 3.73136C14.4542 2.35067 13.1429 1.27456 11.6088 0.639099C10.0746 0.00363778 8.38652 -0.162628 6.75789 0.161327C5.12926 0.485283 3.63326 1.28491 2.45909 2.45909C1.28491 3.63326 0.485283 5.12926 0.161327 6.75789C-0.162628 8.38652 0.00363778 10.0746 0.639099 11.6088C1.27456 13.1429 2.35067 14.4542 3.73136 15.3767C5.11205 16.2993 6.7353 16.7917 8.39584 16.7917C10.4754 16.7917 12.3871 16.0296 13.8596 14.7638L14.2083 15.1254V16.1458L20.6667 22.5913L22.5913 20.6667L16.1458 14.2083ZM8.39584 14.2083C5.17959 14.2083 2.58334 11.6121 2.58334 8.39584C2.58334 5.17959 5.17959 2.58334 8.39584 2.58334C11.6121 2.58334 14.2083 5.17959 14.2083 8.39584C14.2083 11.6121 11.6121 14.2083 8.39584 14.2083Z" fill="black"/>
</svg>
