<svg width="26" height="26" viewBox="0 0 26 26" fill="none" xmlns="http://www.w3.org/2000/svg">
<mask id="mask0_2028_778" style="mask-type:luminance" maskUnits="userSpaceOnUse" x="1" y="2" width="24" height="22">
<path d="M2.6936 4.30984C2.6936 4.02409 2.80712 3.75005 3.00917 3.54799C3.21123 3.34594 3.48528 3.23242 3.77103 3.23242H10.2356L12.9291 6.46469H22.0872C22.373 6.46469 22.647 6.5782 22.8491 6.78026C23.0511 6.98232 23.1646 7.25636 23.1646 7.54211V21.5486C23.1646 21.8344 23.0511 22.1084 22.8491 22.3105C22.647 22.5125 22.373 22.626 22.0872 22.626H3.77103C3.48528 22.626 3.21123 22.5125 3.00917 22.3105C2.80712 22.1084 2.6936 21.8344 2.6936 21.5486V4.30984Z" fill="white" stroke="white" stroke-width="2" stroke-linejoin="round"/>
<path d="M9.69678 12.2828C9.69678 11.7802 12.929 10.7744 12.929 10.7744C12.929 10.7744 16.1613 11.7802 16.1613 12.2828C16.1613 16.3054 12.929 18.3164 12.929 18.3164C12.929 18.3164 9.69678 16.3054 9.69678 12.2828Z" fill="black" stroke="black" stroke-width="2" stroke-linecap="round" stroke-linejoin="round"/>
</mask>
<g mask="url(#mask0_2028_778)">
<path d="M0 0H25.8582V25.8582H0V0Z" fill="black"/>
</g>
</svg>
