<svg width="24" height="24" viewBox="0 0 24 24" fill="none" xmlns="http://www.w3.org/2000/svg">
<path d="M20.3501 8.92256L19.9841 8.71856L19.8711 8.65456C19.5985 8.49094 19.3688 8.26469 19.2011 7.99456C19.1831 7.96756 19.1671 7.93856 19.1351 7.88256C18.9195 7.53649 18.8148 7.13279 18.8351 6.72556L18.8411 6.30056C18.8531 5.62056 18.8591 5.27856 18.7631 4.97256C18.6781 4.7003 18.536 4.44936 18.3461 4.23656C18.1321 3.99656 17.8351 3.82456 17.2401 3.48256L16.7461 3.19756C16.1541 2.85656 15.8571 2.68556 15.5421 2.62056C15.2638 2.56297 14.9764 2.56536 14.6991 2.62756C14.3861 2.69756 14.0931 2.87356 13.5081 3.22356L13.5051 3.22556L13.1511 3.43656C13.0951 3.47056 13.0661 3.48656 13.0381 3.50256C12.7601 3.65756 12.4501 3.74256 12.1311 3.75256C12.0991 3.75456 12.0661 3.75456 12.0011 3.75456L11.8711 3.75356C11.552 3.7434 11.24 3.65699 10.9611 3.50156C10.9331 3.48656 10.9061 3.46956 10.8501 3.43556L10.4931 3.22156C9.90408 2.86756 9.60908 2.69156 9.29408 2.62056C9.01573 2.55826 8.72728 2.55621 8.44808 2.61456C8.13208 2.68056 7.83608 2.85256 7.24308 3.19656L7.24008 3.19756L6.75208 3.48056L6.74708 3.48456C6.15908 3.82456 5.86408 3.99656 5.65208 4.23556C5.46316 4.44796 5.32168 4.69818 5.23708 4.96956C5.14208 5.27656 5.14708 5.61856 5.15908 6.30256L5.16608 6.72656C5.16608 6.79156 5.16908 6.82356 5.16808 6.85456C5.1629 7.21788 5.05884 7.57293 4.86708 7.88156C4.83408 7.93756 4.81908 7.96556 4.80208 7.99156C4.63347 8.26373 4.40198 8.49145 4.12708 8.65556L4.01508 8.71856L3.65408 8.91856C3.05208 9.25156 2.75108 9.41856 2.53308 9.65656C2.33926 9.86639 2.19264 10.1153 2.10308 10.3866C2.00308 10.6936 2.00308 11.0366 2.00408 11.7246L2.00608 12.2876C2.00708 12.9706 2.00908 13.3116 2.11008 13.6166C2.19926 13.8861 2.34483 14.1336 2.53708 14.3426C2.75508 14.5786 3.05308 14.7446 3.65008 15.0766L4.00808 15.2756C4.06908 15.3096 4.10008 15.3256 4.12908 15.3436C4.44245 15.5314 4.69838 15.8015 4.86908 16.1246L4.93608 16.2446C5.10499 16.5635 5.18447 16.9221 5.16608 17.2826L5.15908 17.6896C5.14708 18.3756 5.14208 18.7196 5.23808 19.0266C5.32308 19.2986 5.46508 19.5496 5.65508 19.7626C5.86908 20.0026 6.16708 20.1736 6.76108 20.5166L7.25508 20.8016C7.84808 21.1426 8.14408 21.3136 8.45908 21.3786C8.73738 21.4361 9.02477 21.4338 9.30208 21.3716C9.61608 21.3016 9.90908 21.1256 10.4961 20.7736L10.8501 20.5616L10.9631 20.4956C11.2411 20.3416 11.5511 20.2556 11.8701 20.2456L12.0001 20.2446H12.1301C12.4481 20.2546 12.7601 20.3416 13.0401 20.4966L13.1321 20.5516L13.5081 20.7776C14.0981 21.1316 14.3921 21.3076 14.7071 21.3776C14.9853 21.4405 15.2737 21.4433 15.5531 21.3856C15.8681 21.3196 16.1661 21.1466 16.7591 20.8026L17.2541 20.5156C17.8421 20.1736 18.1371 20.0026 18.3491 19.7636C18.5391 19.5506 18.6791 19.3006 18.7641 19.0296C18.8591 18.7246 18.8541 18.3856 18.8421 17.7116L18.8341 17.2716V17.1446C18.8388 16.781 18.9425 16.4256 19.1341 16.1166L19.1991 16.0066C19.3677 15.7344 19.5992 15.5067 19.8741 15.3426L19.9841 15.2816L19.9861 15.2806L20.3471 15.0806C20.9491 14.7466 21.2501 14.5806 21.4691 14.3426C21.6631 14.1326 21.8091 13.8826 21.8981 13.6126C21.9981 13.3076 21.9981 12.9656 21.9961 12.2856L21.9941 11.7116C21.9931 11.0286 21.9921 10.6866 21.8911 10.3816C21.8015 10.1123 21.6556 9.86512 21.4631 9.65656C21.2461 9.42056 20.9481 9.25456 20.3521 8.92356L20.3501 8.92256Z" stroke="#0A6AF7" stroke-width="2" stroke-linecap="round" stroke-linejoin="round"/>
<path d="M9.17157 14.8284C8.42143 14.0783 8 13.0609 8 12C8 10.9391 8.42143 9.92172 9.17157 9.17157C9.92172 8.42143 10.9391 8 12 8C13.0609 8 14.0783 8.42143 14.8284 9.17157C15.5786 9.92172 16 10.9391 16 12C16 13.0609 15.5786 14.0783 14.8284 14.8284C14.0783 15.5786 13.0609 16 12 16C10.9391 16 9.92172 15.5786 9.17157 14.8284Z" stroke="#0A6AF7" stroke-width="2" stroke-linecap="round" stroke-linejoin="round"/>
</svg>
