<svg width="16" height="16" viewBox="0 0 16 16" fill="none" xmlns="http://www.w3.org/2000/svg">
<path d="M6.95934 0.691212C7.2587 -0.230098 8.56211 -0.2301 8.86146 0.69121L10.0433 4.3285C10.1772 4.74052 10.5611 5.01948 10.9943 5.01948H14.8188C15.7875 5.01948 16.1903 6.2591 15.4066 6.8285L12.3125 9.07647C11.962 9.33111 11.8154 9.78248 11.9493 10.1945L13.1311 13.8318C13.4304 14.7531 12.376 15.5192 11.5922 14.9498L8.49819 12.7019C8.1477 12.4472 7.6731 12.4472 7.32262 12.7019L4.22855 14.9498C3.44484 15.5192 2.39036 14.7531 2.68971 13.8318L3.87154 10.1945C4.00541 9.78248 3.85875 9.33111 3.50827 9.07647L0.414206 6.8285C-0.369507 6.2591 0.0332675 5.01948 1.00199 5.01948H4.82646C5.25969 5.01948 5.64364 4.74052 5.77752 4.3285L6.95934 0.691212Z" fill="#FFC107"/>
</svg>
