<svg width="19" height="21" viewBox="0 0 19 21" fill="none" xmlns="http://www.w3.org/2000/svg">
<path fill-rule="evenodd" clip-rule="evenodd" d="M10.4729 0.0754407C10.9569 0.168441 11.6639 0.410441 12.0049 1.09244C12.7519 2.58644 12.1349 4.00644 11.4729 4.88944C11.0409 5.46544 10.4849 6.00744 9.83791 6.33944C9.70291 6.40944 9.42791 6.53944 9.11091 6.53944C8.51991 6.53944 7.94091 6.27044 7.46591 5.93444C7.37591 6.24044 7.28891 6.57644 7.21391 6.93244C7.06559 7.6155 6.9852 8.31156 6.97391 9.01044C8.02691 8.67044 9.10391 8.70644 10.0319 9.23044C10.7293 8.68276 11.5315 8.28357 12.3889 8.05744C13.6889 7.71644 15.2489 7.76344 16.6659 8.70744C17.6809 9.38444 18.4499 10.6594 18.6049 12.0544C18.7669 13.5084 18.2619 15.0984 16.7349 16.3204C15.6569 17.1824 14.0139 17.5154 12.5019 17.6364C10.9369 17.7624 9.28391 17.6764 8.00091 17.5334C5.62291 17.2694 3.79691 16.6054 2.52091 15.9204C1.68391 15.4704 0.538908 14.8484 0.175908 13.8954C-0.0690918 13.2494 -0.00509189 12.4654 0.0549081 11.7934C0.134908 10.9124 0.330908 9.81244 0.697908 8.62044C1.42991 6.24144 2.86291 3.42644 5.47391 1.26844C6.27691 0.604441 7.62091 0.192441 8.74591 0.0544408C9.32591 -0.0165592 9.93591 -0.0265593 10.4729 0.0754407Z" fill="black"/>
</svg>
