<svg width="34" height="34" viewBox="0 0 34 34" fill="none" xmlns="http://www.w3.org/2000/svg">
<path d="M15.036 21.0735L15.0296 21.0585C14.9002 21.0279 14.7716 20.9944 14.6439 20.9578L14.6342 20.9546C13.412 20.6033 12.2833 19.9844 11.3299 19.1428C10.2814 18.2179 9.47509 17.0505 8.98126 15.7424C8.48743 14.4343 8.32108 13.0253 8.49673 11.6382C8.67237 10.2511 9.18468 8.92802 9.98897 7.78433C10.7933 6.64065 11.8651 5.71108 13.1111 5.07667C14.3571 4.44227 15.7393 4.12229 17.1373 4.14465C18.5353 4.16701 19.9066 4.53102 21.1317 5.20494C22.3567 5.87886 23.3983 6.84223 24.1656 8.01105C24.9329 9.17987 25.4027 10.5186 25.5339 11.9107C25.5756 12.3532 25.2124 12.7142 24.7678 12.7142C24.3242 12.7142 23.9696 12.3532 23.9181 11.9117C23.7765 10.6938 23.3158 9.5349 22.5827 8.55211C21.8496 7.56932 20.87 6.7975 19.7429 6.31467C18.6159 5.83184 17.3814 5.65512 16.1641 5.80236C14.9469 5.94961 13.7901 6.41561 12.8107 7.15325C11.8313 7.89089 11.064 8.87403 10.5864 10.0033C10.1087 11.1325 9.93768 12.3679 10.0905 13.5844C10.2434 14.801 10.7147 15.9556 11.4568 16.9316C12.199 17.9076 13.1856 18.6704 14.3171 19.1428L14.3599 19.161C14.5742 19.2489 14.7942 19.3264 15.0199 19.3935C15.2096 18.9353 15.5523 18.557 15.9896 18.3232C16.427 18.0894 16.9319 18.0145 17.4183 18.1113C17.9047 18.2081 18.3424 18.4707 18.6569 18.8541C18.9714 19.2376 19.1431 19.7183 19.1428 20.2142C19.1433 20.7067 18.9741 21.1843 18.6638 21.5667C18.3534 21.9491 17.9208 22.2129 17.4388 22.3137C16.9568 22.4146 16.4547 22.3463 16.0171 22.1205C15.5795 21.8946 15.233 21.5249 15.036 21.0735ZM13.9796 22.4364C12.0762 21.8444 10.3886 20.7067 9.126 19.1642C8.34355 19.2559 7.62201 19.6317 7.09839 20.2203C6.57477 20.8089 6.28555 21.5693 6.28564 22.3571V23.1232C6.28564 27.1067 10.7964 29.8571 16.9999 29.8571C23.2035 29.8571 27.7142 26.9557 27.7142 23.1232V22.3571C27.7142 21.5046 27.3756 20.687 26.7728 20.0842C26.17 19.4814 25.3524 19.1428 24.4999 19.1428H20.5946C20.8473 19.9893 20.7931 20.8978 20.4415 21.7082C20.0899 22.5186 19.4635 23.1789 18.6727 23.5726C17.8819 23.9663 16.9775 24.0682 16.1189 23.8604C15.2603 23.6525 14.5027 23.1482 13.9796 22.4364ZM22.3571 12.7142C22.3571 11.0942 21.6392 9.64244 20.5024 8.65994C19.9321 8.1679 19.2643 7.80169 18.5428 7.58519C17.8213 7.3687 17.0623 7.3068 16.3152 7.40354C15.5682 7.50027 14.8499 7.75347 14.2074 8.14659C13.5648 8.53972 13.0124 9.06394 12.5861 9.68503C12.1599 10.3061 11.8694 11.0101 11.7337 11.7511C11.598 12.492 11.62 13.2533 11.7985 13.9851C11.9769 14.717 12.3076 15.403 12.7691 15.9983C13.2306 16.5937 13.8125 17.085 14.4767 17.4403C15.167 16.8123 16.0667 16.4643 16.9999 16.4642C17.9335 16.464 18.8336 16.8121 19.5242 17.4403C20.3802 16.983 21.0959 16.3018 21.5948 15.4694C22.0938 14.637 22.3572 13.6847 22.3571 12.7142Z" fill="black"/>
</svg>
