<svg width="27" height="27" viewBox="0 0 27 27" fill="none" xmlns="http://www.w3.org/2000/svg">
<g clip-path="url(#clip0_2062_480)">
<path d="M13.5 0C9.92039 0 6.48422 1.4232 3.95508 3.95402C1.42335 6.48587 0.000724462 9.91951 0 13.5C0 17.079 1.42383 20.5151 3.95508 23.046C6.48422 25.5768 9.92039 27 13.5 27C17.0796 27 20.5158 25.5768 23.0449 23.046C25.5762 20.5151 27 17.079 27 13.5C27 9.92102 25.5762 6.48485 23.0449 3.95402C20.5158 1.4232 17.0796 0 13.5 0Z" fill="url(#paint0_linear_2062_480)"/>
<path d="M6.11082 13.3575C10.0469 11.643 12.671 10.5127 13.983 9.96651C17.7335 8.40705 18.5118 8.13621 19.0202 8.12703C19.132 8.12524 19.3809 8.15287 19.5433 8.28418C19.6783 8.39492 19.7163 8.54469 19.7353 8.64984C19.7522 8.75489 19.7754 8.9943 19.7564 9.18119C19.5539 11.3159 18.6743 16.4961 18.2271 18.8871C18.0393 19.8987 17.666 20.2379 17.3053 20.271C16.5206 20.3432 15.9257 19.753 15.1664 19.2554C13.9788 18.4764 13.308 17.9916 12.1542 17.2316C10.8211 16.3533 11.6859 15.8704 12.4453 15.0815C12.6436 14.875 16.0987 11.7331 16.1641 11.4481C16.1725 11.4125 16.181 11.2796 16.1008 11.2096C16.0228 11.1393 15.9068 11.1634 15.8224 11.1824C15.7022 11.2094 13.8058 12.464 10.1271 14.9461C9.58918 15.3161 9.10192 15.4965 8.66317 15.487C8.18223 15.4766 7.25411 15.2144 6.56434 14.9904C5.72059 14.7156 5.0477 14.5702 5.10676 14.1034C5.13629 13.8604 5.47168 13.6117 6.11082 13.3575Z" fill="white"/>
</g>
<defs>
<linearGradient id="paint0_linear_2062_480" x1="13.5" y1="0" x2="13.5" y2="27" gradientUnits="userSpaceOnUse">
<stop stop-color="#2AABEE"/>
<stop offset="1" stop-color="#229ED9"/>
</linearGradient>
<clipPath id="clip0_2062_480">
<rect width="27" height="27" fill="white"/>
</clipPath>
</defs>
</svg>
