<svg width="37" height="37" viewBox="0 0 37 37" fill="none" xmlns="http://www.w3.org/2000/svg">
<g clip-path="url(#clip0_517_1726)">
<path d="M18.5 0C13.5946 0 8.88578 1.9503 5.41992 5.41848C1.95051 8.88804 0.000992781 13.5934 0 18.5C0 23.4045 1.95117 28.1133 5.41992 31.5815C8.88578 35.0497 13.5946 37 18.5 37C23.4054 37 28.1142 35.0497 31.5801 31.5815C35.0488 28.1133 37 23.4045 37 18.5C37 13.5955 35.0488 8.88665 31.5801 5.41848C28.1142 1.9503 23.4054 0 18.5 0Z" fill="url(#paint0_linear_517_1726)"/>
<path d="M8.37405 18.3046C13.768 15.9551 17.3639 14.4061 19.1619 13.6576C24.3014 11.5206 25.368 11.1494 26.0647 11.1368C26.2179 11.1344 26.559 11.1722 26.7815 11.3522C26.9665 11.5039 27.0186 11.7092 27.0446 11.8533C27.0677 11.9972 27.0995 12.3253 27.0735 12.5814C26.796 15.5067 25.5906 22.6055 24.9778 25.8821C24.7205 27.2684 24.2089 27.7332 23.7146 27.7786C22.6393 27.8774 21.8241 27.0687 20.7835 26.3868C19.1561 25.3192 18.2369 24.655 16.6557 23.6135C14.8288 22.4098 16.014 21.7482 17.0546 20.6671C17.3263 20.3841 22.0612 16.0785 22.1508 15.688C22.1623 15.6391 22.1739 15.457 22.0641 15.361C21.9571 15.2648 21.7981 15.2977 21.6825 15.3238C21.5177 15.3608 18.9191 17.0801 13.8778 20.4815C13.1407 20.9885 12.473 21.2357 11.8717 21.2227C11.2126 21.2085 9.94077 20.8492 8.99554 20.5422C7.83929 20.1656 6.91718 19.9664 6.99811 19.3267C7.03858 18.9937 7.49819 18.6529 8.37405 18.3046Z" fill="white"/>
</g>
<defs>
<linearGradient id="paint0_linear_517_1726" x1="18.5" y1="0" x2="18.5" y2="37" gradientUnits="userSpaceOnUse">
<stop stop-color="#2AABEE"/>
<stop offset="1" stop-color="#229ED9"/>
</linearGradient>
<clipPath id="clip0_517_1726">
<rect width="37" height="37" fill="white"/>
</clipPath>
</defs>
</svg>
