<svg width="17" height="20" viewBox="0 0 17 20" fill="none" xmlns="http://www.w3.org/2000/svg">
<path d="M5.12625 0.82125L4.8 1.8H1.2C0.53625 1.8 0 2.33625 0 3C0 3.66375 0.53625 4.2 1.2 4.2H15.6C16.2637 4.2 16.8 3.66375 16.8 3C16.8 2.33625 16.2637 1.8 15.6 1.8H12L11.6737 0.82125C11.5087 0.33 11.0512 0 10.5337 0H6.26625C5.74875 0 5.29125 0.33 5.12625 0.82125ZM15.6 6H1.2L1.99125 18.1162C2.05125 19.065 2.83875 19.8 3.7875 19.8H13.0125C13.9612 19.8 14.7487 19.065 14.8087 18.1162L15.6 6Z" fill="#0A6AF7"/>
</svg>
